<?xml version="1.0" encoding="iso-8859-1"?>
<!-- Generator: Adobe Illustrator 19.0.0, SVG Export Plug-In . SVG Version: 6.00 Build 0)  -->
<svg version="1.1" id="Capa_1" xmlns="http://www.w3.org/2000/svg" xmlns:xlink="http://www.w3.org/1999/xlink" x="0px" y="0px"
	 viewBox="0 0 512 512" style="enable-background:new 0 0 512 512;" xml:space="preserve">
<circle style="fill:#FFB344;" cx="256" cy="256" r="256"/>
<path style="fill:#FF9451;" d="M183.765,300.932l184.96,184.96C453.584,444.203,512,356.929,512,256
	c0-12.837-0.957-25.45-2.781-37.78L397.844,106.846L183.765,300.932z"/>
<circle style="fill:#F2D99C;" cx="246.77" cy="202.56" r="23.14"/>
<circle style="fill:#CCB47F;" cx="409.13" cy="202.56" r="23.14"/>
<path style="fill:#F2D99C;" d="M446.559,339.642l-75.262-9.628c-9.239-1.182-16.161-9.046-16.161-18.36v-34.137h-54.369v34.137
	c0,9.315-6.922,17.178-16.161,18.36l-75.262,9.628c-23.038,2.947-40.297,22.555-40.297,45.781v34.888
	c41.398,39.277,97.335,63.378,158.905,63.378c20.322,0,40.024-2.641,58.798-7.571c41.777-24.869,75.872-61.285,97.881-104.855
	C479.27,354.633,464.712,341.964,446.559,339.642z"/>
<path style="fill:#CCB47F;" d="M446.559,339.642l-75.262-9.628c-9.239-1.182-16.161-9.046-16.161-18.36v-34.137h-27.185v206.164
	c-0.38,0-0.191,0.007,0,0.007c20.322,0,40.024-2.641,58.798-7.571c41.777-24.869,75.872-61.285,97.881-104.855
	C479.27,354.633,464.712,341.964,446.559,339.642z"/>
<path style="fill:#FFECB3;" d="M372.296,291.682l-12.775,6.879c-19.631,10.57-43.258,10.57-62.889,0l-12.775-6.879
	c-23.592-12.703-38.303-37.334-38.303-64.128v-78.8H410.6v78.8C410.599,254.348,395.887,278.979,372.296,291.682z"/>
<path style="fill:#FFD863;" d="M327.732,148.754v157.724c10.695,0.116,21.763-2.519,31.789-7.917l12.775-6.879
	c23.592-12.703,38.303-37.334,38.303-64.128v-78.8L327.732,148.754z"/>
<path style="fill:#FFFFFF;" d="M484.63,371.263c-5.361-16.63-19.918-29.299-38.072-31.621l-63.697-8.148
	c-13.733,14.649-33.246,23.815-54.911,23.815s-41.178-9.166-54.911-23.815l-63.697,8.148c-23.038,2.947-40.297,22.555-40.297,45.781
	v34.888c26.826,25.452,59.759,66.06,96.373,91.499C361.337,508.339,443.791,452.111,484.63,371.263z"/>
<path style="fill:#F2F2F2;" d="M484.63,371.263c-5.361-16.63-19.918-29.299-38.072-31.621l-63.697-8.148
	c-13.733,14.649-33.246,23.815-54.911,23.815v146.424C396.42,481.718,453.003,433.873,484.63,371.263z"/>
<path style="fill:#E0E0E0;" d="M324.033,355.206c-20.092-1.032-38.093-9.951-50.992-23.712l-27.488,3.516l43.526,56.169
	l38.873-35.852C326.635,355.327,325.329,355.285,324.033,355.206z"/>
<path style="fill:#C0C0C0;" d="M327.951,355.327l38.873,35.852l43.526-56.169l-27.488-3.516c-12.9,13.761-30.9,22.68-50.992,23.712
	C330.573,355.285,329.267,355.327,327.951,355.327z"/>
<path style="fill:#4D4D4D;" d="M409.646,237.739h14.495v-64.862c0-53.168-43.194-96.248-96.405-96.064
	c-53.093,0.184-95.725,44.014-95.725,97.107v63.819h13.542v-44.823c62.854,8.141,112.604-36.821,112.604-36.821
	s21.81,42.256,51.489,49.75V237.739z"/>
<path style="fill:#333333;" d="M327.736,76.812l-0.002,99.561c19.134-9.942,30.422-20.278,30.422-20.278s21.81,42.256,51.489,49.75
	v31.894h14.495v-64.862C424.141,119.708,380.948,76.628,327.736,76.812z"/>
<rect x="69.33" y="215.44" style="fill:#754C24;" width="192.13" height="157.64"/>
<rect x="164.29" y="215.44" style="fill:#603813;" width="97.17" height="157.64"/>
<path style="fill:#F2D99C;" d="M267.606,362.981l-64.938-8.307c-7.972-1.02-13.944-7.805-13.944-15.842v-29.454h-46.911v29.454
	c0,8.037-5.972,14.822-13.944,15.842l-64.938,8.307c-12.74,1.63-23.423,9.169-29.459,19.645
	c34.064,59.733,91.48,104.415,159.823,121.624c40.53-4.906,77.823-20.314,109.082-43.419v-58.35
	C302.375,382.442,287.484,365.524,267.606,362.981z"/>
<path style="fill:#CCB276;" d="M267.606,362.981l-64.938-8.307c-7.972-1.02-13.944-7.805-13.944-15.842v-29.454h-23.456v185.669
	c8.435,3.615,18.111,6.707,28.026,9.204c40.53-4.906,77.823-20.314,109.082-43.419v-58.35
	C302.375,382.442,287.484,365.524,267.606,362.981z"/>
<path style="fill:#FFECB3;" d="M209.612,313.932l-12.775,6.879c-19.63,10.57-43.258,10.57-62.889,0l-12.775-6.879
	c-23.592-12.703-38.303-37.334-38.303-64.128v-78.8h165.046v78.8C247.915,276.598,233.204,301.229,209.612,313.932z"/>
<path style="fill:#FFD863;" d="M247.915,171.004h-82.603v157.717c10.156,0.186,21.374-2.445,31.525-7.911l12.775-6.879
	c23.591-12.703,38.303-37.334,38.303-64.128L247.915,171.004L247.915,171.004z"/>
<path style="fill:#008CC3;" d="M267.606,362.981l-54.96-7.03c-11.849,12.64-28.686,20.548-47.379,20.548
	s-35.529-7.908-47.379-20.548l-54.96,7.03c-12.74,1.63-23.423,9.169-29.459,19.645C77.536,459.899,160.68,512,256,512
	c15.837,0,31.334-1.449,46.375-4.201V402.482C302.375,382.442,287.484,365.524,267.606,362.981z"/>
<g>
	<path style="fill:#0074A3;" d="M267.606,362.981l-54.96-7.03c-11.849,12.64-28.686,20.548-47.379,20.548
		c-0.329,0-0.653-0.021-0.08-0.026v118.598C192.759,506.003,223.678,512,256,512c15.837,0,31.334-1.449,46.375-4.201V402.482
		C302.375,382.442,287.484,365.524,267.606,362.981z"/>
	<path style="fill:#0074A3;" d="M161.886,376.41c-17.336-0.891-32.867-8.586-43.998-20.459l-23.717,3.034l20.518,26.478
		c9.164,11.826,26.487,13.272,37.485,3.129l13.094-12.076C164.132,376.515,163.005,376.479,161.886,376.41z"/>
</g>
<path style="fill:#005C83;" d="M165.267,376.515l13.094,12.076c10.998,10.143,28.321,8.697,37.485-3.129l20.518-26.478
	l-23.717-3.034c-11.13,11.873-26.662,19.569-43.998,20.459C167.53,376.479,166.403,376.515,165.267,376.515z"/>
<path style="fill:#8C6239;" d="M165.053,99.062c-53.093,0.184-95.725,44.014-95.725,97.107v134.148l11.25-26.697
	c3.238-7.684,4.906-15.939,4.906-24.277v-53.704c85.948-10.889,117.574-50.403,117.574-50.403s11.642,27.683,42.245,50.502v53.605
	c0,8.339,1.668,16.593,4.906,24.277l11.25,26.697V195.126C261.457,141.958,218.264,98.878,165.053,99.062z"/>
<path style="fill:#754C24;" d="M165.292,202.505c26.454-13.145,37.765-27.269,37.765-27.269s11.642,27.683,42.245,50.502v53.605
	c0,8.339,1.668,16.593,4.906,24.277l11.25,26.697V195.126c0-53.168-43.194-96.248-96.405-96.064L165.292,202.505z"/>
<g>
</g>
<g>
</g>
<g>
</g>
<g>
</g>
<g>
</g>
<g>
</g>
<g>
</g>
<g>
</g>
<g>
</g>
<g>
</g>
<g>
</g>
<g>
</g>
<g>
</g>
<g>
</g>
<g>
</g>
</svg>
